# xmcd
#
# Track frame offsets: 
#        150
#        19364
#        40181
#        57027
#        73947
#        91312
#        106474
#        126783
#        144863
#        158901
#        177919
#        192908
#        213597
#        226498
#        239319
#        254846
#        269786
#        284568
#        300882
#        317435
#        336408
#
# Disc length: 4645 seconds
#
# Revision: 0
# Processed by: cddbd v1.5.2PL0 Copyright (c) Steve Scherf et al.
# Submitted via: ExactAudioCopyFreeDBPlugin 1.0
#
DISCID=3e122315
DTITLE=Madness - Full House: The Very Best Of Madness [disc 2]
DYEAR=1900
DGENRE=
TTITLE0=Uncle Sam
TTITLE1=Yesterday's Men
TTITLE2=(Waiting For) The Ghost Train
TTITLE3=Sarah's Song
TTITLE4=Lovestruck
TTITLE5=Johnny The Horse
TTITLE6=Drip Fed Fred
TTITLE7=Simple Equation
TTITLE8=Girl Why Don't You
TTITLE9=NW5
TTITLE10=Dust Devil
TTITLE11=Forever Young
TTITLE12=Sugar And Spice
TTITLE13=My Girl
TTITLE14=Never Knew Your Name
TTITLE15=How Can I Tell You?
TTITLE16=Misery
TTITLE17=La Luna
TTITLE18=Mr. Apples
TTITLE19=Can't Touch Us Now
TTITLE20=Another Version Of Me
EXTD=
EXTT0=
EXTT1=
EXTT2=
EXTT3=
EXTT4=
EXTT5=
EXTT6=
EXTT7=
EXTT8=
EXTT9=
EXTT10=
EXTT11=
EXTT12=
EXTT13=
EXTT14=
EXTT15=
EXTT16=
EXTT17=
EXTT18=
EXTT19=
EXTT20=
PLAYORDER=
